HIERARCHY
ROOT Hips
{
	OFFSET	0.00	0.00	0.00
	CHANNELS 6 Xposition Yposition Zposition Zrotation Xrotation Yrotation
	JOINT LeftUpLeg
	{
		OFFSET	 0.126116	-0.014019	-0.065224
		CHANNELS 3 Zrotation Xrotation Yrotation
		JOINT LeftLeg
		{
			OFFSET	 0.000000	 0.000000	 0.569914
			CHANNELS 3 Zrotation Xrotation Yrotation
			JOINT LeftFoot
			{
				OFFSET	 0.000000	 0.000000	 0.544423
				CHANNELS 3 Zrotation Xrotation Yrotation
				JOINT LeftToeBase
				{
					OFFSET	 0.000000	 0.000000	 0.207117
					CHANNELS 3 Zrotation Xrotation Yrotation
					End Site
					{
						OFFSET	 0.000000	 0.000000	 0.207117
					}
				}
			}
		}
	}
	JOINT RightUpLeg
	{
		OFFSET	-0.124023	-0.008373	-0.065224
		CHANNELS 3 Zrotation Xrotation Yrotation
		JOINT RightLeg
		{
			OFFSET	 0.000000	 0.000000	 0.570047
			CHANNELS 3 Zrotation Xrotation Yrotation
			JOINT RightFoot
			{
				OFFSET	 0.000000	 0.000000	 0.544354
				CHANNELS 3 Zrotation Xrotation Yrotation
				JOINT RightToeBase
				{
					OFFSET	 0.000000	 0.000000	 0.207540
					CHANNELS 3 Zrotation Xrotation Yrotation
					End Site
					{
						OFFSET	 0.000000	 0.000000	 0.207540
					}
				}
			}
		}
	}
	JOINT Spine
	{
		OFFSET	 0.000184	-0.007763	 0.117403
		CHANNELS 3 Zrotation Xrotation Yrotation
		JOINT Spine1
		{
			OFFSET	 0.000000	 0.000000	 0.137269
			CHANNELS 3 Zrotation Xrotation Yrotation
			JOINT Spine2
			{
				OFFSET	 0.000000	 0.000000	 0.156879
				CHANNELS 3 Zrotation Xrotation Yrotation
				JOINT LeftShoulder
				{
					OFFSET	 0.080501	-0.002496	 0.160144
					CHANNELS 3 Zrotation Xrotation Yrotation
					JOINT LeftArm
					{
						OFFSET	 0.000000	 0.000000	 0.164363
						CHANNELS 3 Zrotation Xrotation Yrotation
						JOINT LeftForeArm
						{
							OFFSET	 0.000000	 0.000000	 0.364576
							CHANNELS 3 Zrotation Xrotation Yrotation
							JOINT LeftHand
							{
								OFFSET	 0.000000	 0.000000	 0.360812
								CHANNELS 3 Zrotation Xrotation Yrotation
								JOINT LeftHandIndex1
								{
									OFFSET	 0.000000	 0.000000	 0.086006
									CHANNELS 3 Zrotation Xrotation Yrotation
									JOINT LeftHandIndex2
									{
										OFFSET	 0.000000	 0.000000	 0.047236
										CHANNELS 3 Zrotation Xrotation Yrotation
										JOINT LeftHandIndex3
										{
											OFFSET	-0.004284	-0.000551	 0.038166
											CHANNELS 3 Zrotation Xrotation Yrotation
											End Site
											{
												OFFSET	-0.004284	-0.000551	 0.038166
											}
										}
									}
								}
							}
						}
					}
				}
				JOINT Neck
				{
					OFFSET	 0.000000	 0.000000	 0.176489
					CHANNELS 3 Zrotation Xrotation Yrotation
					JOINT Head
					{
						OFFSET	 0.000000	-0.001747	 0.077940
						CHANNELS 3 Zrotation Xrotation Yrotation
						End Site
						{
							OFFSET	 0.000000	-0.001747	 0.077940
						}
					}
				}
				JOINT RightShoulder
				{
					OFFSET	-0.080363	 0.000306	 0.159706
					CHANNELS 3 Zrotation Xrotation Yrotation
					JOINT RightArm
					{
						OFFSET	 0.000000	 0.000000	 0.164196
						CHANNELS 3 Zrotation Xrotation Yrotation
						JOINT RightForeArm
						{
							OFFSET	 0.000000	 0.000000	 0.365611
							CHANNELS 3 Zrotation Xrotation Yrotation
							JOINT RightHand
							{
								OFFSET	 0.000000	 0.000000	 0.360648
								CHANNELS 3 Zrotation Xrotation Yrotation
								JOINT RightHandIndex1
								{
									OFFSET	 0.000000	 0.000000	 0.069977
									CHANNELS 3 Zrotation Xrotation Yrotation
									JOINT RightHandIndex2
									{
										OFFSET	 0.000000	 0.000000	 0.052305
										CHANNELS 3 Zrotation Xrotation Yrotation
										JOINT RightHandIndex3
										{
											OFFSET	 0.009002	-0.000782	 0.042196
											CHANNELS 3 Zrotation Xrotation Yrotation
											End Site
											{
												OFFSET	 0.009002	-0.000782	 0.042196
											}
										}
									}
								}
							}
						}
					}
				}
			}
		}
	}
}
MOTION
Frames:    9
Frame Time: 0.03333334
 0.012401	 0.031308	 1.200953	 4.611663	-1.330306	-2.873908	 5.129296	-10.233060	-173.280100	 0.705093	-38.688690	 0.220266	 59.684710	 82.154570	-63.587760	-2.370282	 31.466420	-0.066568	-9.838690	-31.948720	-175.745000	 9.974480	-49.329500	 8.180718	 8.792115	 70.635250	-3.943639	 2.358464	 33.074990	 0.104964	-8.870189	 8.720978	 1.973670	-1.646451	 2.356182	-0.879772	 1.610291	-2.225996	 0.868058	-93.881160	 58.910720	 175.517000	 8.329329	 29.722050	-46.642180	-3.479106	 0.029737	-1.789843	-5.199750	-29.666810	-9.310055	-4.870457	 19.227580	-2.788327	-3.881848	 21.468670	 2.203077	-4.806997	 5.560392	 0.146100	-0.093645	-5.053956	 0.175105	-0.557956	 2.159289	 2.728498	 89.798100	 61.624180	-179.962000	-21.509210	 55.157510	 10.688790	 1.010095	-1.838153	 14.084660	-2.084224	-15.696330	 1.374903	 6.296939	 25.216080	-0.553566	 1.836262	 45.095570	-6.949179	 0.473661	 24.506500	 3.595023
 0.011046	 0.002952	 1.199611	 5.014079	-1.110984	-2.860760	 4.583076	-8.746825	-173.604600	 0.980070	-38.105420	 0.387146	 65.578640	 82.866360	-69.676630	-2.369576	 31.584210	-0.069231	-10.849790	-33.501830	-176.129400	 9.576288	-45.306670	 7.385929	 7.295713	 69.512810	-2.591932	 2.358872	 33.014480	 0.103559	-11.232970	 8.612892	 1.916504	-1.743414	 2.528590	-0.897858	 1.551644	-2.389364	 0.897443	-93.956360	 58.954070	 175.351300	 7.366914	 28.253160	-47.165710	-5.237088	 0.126536	-2.517584	-7.568533	-32.411120	-11.391690	-4.870131	 19.243200	-2.790865	-3.878558	 21.510790	 2.199735	-4.806244	 5.569314	 0.145577	-0.071175	-5.080746	 0.186549	-0.545156	 2.124107	 2.647876	 89.774520	 61.653580	 179.981900	-21.472020	 56.044450	 9.262438	 2.214724	-1.529312	 15.225010	-0.596425	-18.443070	 1.881046	 6.291997	 24.681850	-0.537408	 1.908640	 44.512920	-7.013737	 0.557073	 24.140920	 3.552683
 0.008917	-0.039157	 1.197082	 5.500042	-0.644364	-2.873034	 3.883320	-6.542359	-174.053100	 1.173989	-36.964080	 0.493864	 74.364900	 83.652980	-78.590740	-2.368741	 31.723660	-0.072393	-12.462930	-34.875930	-176.922900	 9.156068	-37.744370	 6.106824	 4.146526	 66.838490	 0.348263	 2.358977	 32.998110	 0.103183	-14.323370	 8.307100	 1.800731	-1.903684	 2.762486	-0.866138	 1.467327	-2.614593	 0.909330	-94.077100	 58.975670	 175.091200	 5.877533	 26.259680	-47.807710	-7.310746	 0.311566	-3.498596	-10.635860	-35.954730	-14.099690	-4.866053	 19.348250	-2.797858	-3.871802	 21.597010	 2.192872	-4.804719	 5.587243	 0.144527	-0.045897	-5.099907	 0.221378	-0.553906	 2.090287	 2.582038	 89.727970	 61.736760	 179.870500	-21.309650	 57.219100	 7.789035	 3.600648	-0.946309	 15.430590	 1.309896	-21.936640	 2.725699	 6.280291	 23.834320	-0.547659	 2.009319	 43.679820	-7.103164	 0.738508	 23.337390	 3.462124
 0.006676	-0.076504	 1.193866	 5.958241	-0.200487	-2.889793	 3.243493	-4.569077	-174.461500	 1.345329	-35.824980	 0.581025	 82.894070	 84.227360	-87.229410	-2.367949	 31.854110	-0.075355	-14.085930	-35.239110	-177.846100	 8.876778	-30.208590	 4.882064	 2.481147	 65.382180	 1.632184	 2.359069	 32.985920	 0.102898	-17.105510	 8.015635	 1.684641	-2.047955	 2.859629	-0.837567	 1.386068	-2.769566	 0.919198	-94.191750	 58.994430	 174.844200	 4.768681	 24.649550	-48.279790	-9.161062	 0.535286	-4.381636	-13.652260	-38.764460	-16.905470	-4.862012	 19.451420	-2.804627	-3.865312	 21.679740	 2.186273	-4.803258	 5.604438	 0.143519	-0.022305	-5.117105	 0.255159	-0.563403	 2.059174	 2.521963	 89.683510	 61.817340	 179.763600	-21.001220	 58.081190	 6.925395	 4.825843	-0.323699	 14.615160	 3.078153	-24.793850	 3.668536	 6.268902	 23.029130	-0.559012	 2.101600	 42.892090	-7.184750	 0.910678	 22.564400	 3.378130
 0.004548	-0.109445	 1.189475	 6.183190	 0.218325	-3.081435	 2.924537	-2.773866	-174.661100	 1.438053	-34.777790	 0.619116	 92.113750	 84.619630	-96.509810	-2.366634	 32.067060	-0.080206	-14.908370	-36.137840	-178.456800	 8.996528	-25.245240	 4.193378	 1.796050	 63.991780	 1.749284	 2.360343	 32.796450	 0.098500	-19.623430	 7.658229	 1.741229	-2.150955	 2.991549	-0.790205	 1.326835	-2.880489	 0.904477	-94.288790	 58.989440	 174.637900	 3.988585	 23.462460	-48.698390	-11.285970	 0.810260	-5.243894	-16.721830	-41.436900	-19.145160	-4.853383	 19.647770	-2.812627	-3.856102	 21.796710	 2.176926	-4.798061	 5.665717	 0.139922	-0.012733	-5.153584	 0.287994	-0.595075	 2.033695	 2.517590	 89.613830	 61.896360	 179.595100	-20.516030	 58.688180	 6.223896	 5.780830	 0.216429	 13.929890	 4.473484	-27.243550	 4.354078	 6.252347	 22.059040	-0.592751	 2.189073	 42.123350	-7.261728	 1.131394	 21.558640	 3.273308
 0.001987	-0.141863	 1.183394	 6.406395	 0.634854	-3.281179	 2.601829	-1.022697	-174.874100	 1.530474	-33.887150	 0.656733	 103.767000	 84.866800	-108.229700	-2.365257	 32.285130	-0.085191	-15.644940	-38.341600	-179.148100	 9.313127	-22.922550	 3.957140	 1.847405	 63.925990	 1.090955	 2.361578	 32.608620	 0.094165	-22.023950	 7.299169	 1.800208	-2.246207	 3.099914	-0.736856	 1.267431	-2.979372	 0.886374	-94.385920	 58.984120	 174.431800	 3.375367	 22.431600	-49.143520	-13.355730	 1.126956	-6.072457	-19.735580	-43.596780	-21.433940	-4.844552	 19.847120	-2.820677	-3.846747	 21.915270	 2.167412	-4.792706	 5.728723	 0.136228	-0.003308	-5.190697	 0.320929	-0.627056	 2.008001	 2.513720	 89.543610	 61.975700	 179.424400	-19.957360	 59.224930	 5.333625	 6.687284	 0.717686	 13.635520	 5.786295	-29.213390	 5.050699	 6.235059	 21.078600	-0.627223	 2.275082	 41.345770	-7.337054	 1.351123	 20.541010	 3.172212
-0.000774	-0.174417	 1.176659	 6.470972	 0.836576	-3.457931	 2.371267	 1.084306	-175.122300	 1.574920	-32.769070	 0.661592	 112.895000	 85.077970	-117.367500	-2.361592	 32.847530	-0.098138	-15.377260	-40.829710	-179.443900	 9.337728	-22.234500	 3.854387	 4.294362	 67.592740	-1.846239	 2.356604	 33.343880	 0.111235	-24.266060	 7.006884	 1.894713	-2.324439	 3.428834	-0.712236	 1.254822	-3.119530	 0.883586	-94.434690	 58.971670	 174.329800	 2.671994	 21.746360	-49.571130	-15.257050	 1.474764	-6.853855	-22.598470	-44.922320	-23.472170	-4.833794	 20.059040	-2.821819	-3.834371	 22.071400	 2.154848	-4.780355	 5.873822	 0.127687	 0.011748	-5.240489	 0.333356	-0.626040	 1.961425	 2.489770	 89.488100	 62.016280	 179.289600	-19.166790	 59.638330	 4.284011	 7.442561	 1.189378	 13.474800	 6.876639	-30.851840	 5.432092	 6.213203	 19.929610	-0.673720	 2.424680	 39.940010	-7.467180	 1.593133	 19.401540	 3.064734
-0.003881	-0.210193	 1.169633	 6.553604	 1.035485	-3.640332	 2.093686	 3.551608	-175.399000	 1.624971	-31.082010	 0.656895	 119.828900	 85.367480	-124.312000	-2.356885	 33.534460	-0.114116	-14.980040	-43.163120	-179.663500	 9.387533	-22.028340	 3.839724	 8.852766	 71.936380	-6.926772	 2.350595	 34.175840	 0.130820	-26.595210	 6.722378	 1.990990	-2.425707	 3.610456	-0.713633	 1.242061	-3.203904	 0.892151	-94.486080	 58.956280	 174.222900	 2.059794	 21.137760	-49.849920	-17.216750	 1.886215	-7.658754	-25.413970	-45.805870	-25.487530	-4.824270	 20.279560	-2.832667	-3.820550	 22.245060	 2.140810	-4.766069	 6.041275	 0.117781	 0.030576	-5.294888	 0.346136	-0.620016	 1.914455	 2.452166	 89.429690	 62.052000	 179.147300	-18.245230	 59.938100	 3.454561	 8.231857	 1.712755	 12.688300	 7.937803	-32.083040	 5.735575	 6.189444	 18.674000	-0.718403	 2.581001	 38.394350	-7.601840	 1.853215	 18.155680	 2.953877
-0.006728	-0.243651	 1.164465	 6.705560	 1.057883	-3.747191	 1.757472	 6.182983	-175.711700	 1.713651	-28.837350	 0.656506	 116.317300	 86.041260	-120.814400	-2.347544	 34.792690	-0.143900	-15.021210	-44.128200	-179.978600	 9.799691	-21.673770	 3.937683	 11.667320	 73.252390	-10.410650	 2.342637	 35.201010	 0.155371	-28.747720	 6.749092	 2.053036	-2.539181	 3.382075	-0.764857	 1.247574	-3.218243	 0.920981	-94.517790	 58.926290	 174.160300	 1.532032	 20.877140	-49.739780	-18.644380	 2.284570	-8.352126	-28.008150	-46.229140	-27.697390	-4.834233	 20.394030	-2.923639	-3.805398	 22.434550	 2.125426	-4.746182	 6.273813	 0.103961	 0.068410	-5.346151	 0.351028	-0.572308	 1.903039	 2.320133	 89.392180	 62.012500	 179.057900	-17.286270	 59.933270	 3.432314	 9.072119	 2.189281	 10.179350	 9.013304	-32.947320	 5.993279	 6.175478	 17.489750	-0.708383	 2.728594	 36.858940	-7.727624	 2.094830	 16.978910	 2.855337
